<svg xmlns:xlink="http://www.w3.org/1999/xlink" preserveAspectRatio="xMidYMid meet" data-bbox="-0.921 0.196 123.631 59.682" xmlns="http://www.w3.org/2000/svg" viewBox="0 0 120.281 55.388" height="55.388" width="120.281" data-type="ugc" role="presentation" aria-hidden="true" aria-label="">
    <g transform="translate(-43.976 -111.012)">
        <text transform="rotate(-.086)" y="152.495" x="42.86" style="-inkscape-font-specification:Barlow" font-size="22.578" font-family="Barlow" fill="#F9F9F9" stroke-width="0.4px" stroke-linejoin="round" stroke-dasharray="0,2.86112" paint-order="markers fill stroke"><tspan y="152.495" x="42.86" style="-inkscape-font-specification:'Comic Sans MS, Bold';font-variant-ligatures:normal;font-variant-caps:normal;font-variant-numeric:normal;font-variant-east-asian:normal" font-weight="700" font-size="25.4" font-family="Comic Sans MS" fill="#F9F9F9" stroke-width="0.4px">bitwitch</tspan></text>
        <path d="M105.079 130.222c-.031-.002-.727.035-.89.038-.043.001-.093-.004-.106-.064-.01-.05.028-.08.06-.105a1.36 1.36 0 0 1 .135-.094c.096-.062.194-.12.29-.182.078-.052.074-.108.028-.193a.72.72 0 0 0-.398-.33c-.396-.156-.792-.308-1.188-.463-.319-.124-.633-.258-.872-.537-.033-.038-.156-.126-.106-.3.04-.055.1-.033.149-.02.095.021.181.068.268.116.512.284.994.622 1.495.927.036.022.083.073.116.027.035-.051-.026-.083-.055-.113-.257-.275-.516-.547-.771-.823-.034-.035-.08-.084-.054-.137.03-.057.09-.028.133-.014.277.037 1.03.311 1.067.222.037-.086-1.148-1.07-1.507-1.215a6.339 6.633 0 0 0-1.27-.365 1.675 1.752 0 0 1-.7-.302c-.493-.366-.973-.75-1.456-1.13-1.098-.861-2.173-1.76-3.332-2.523a37.605 39.351 0 0 0-1.987-1.23 37.666 39.415 0 0 0-2.438-1.276 7.83 7.83 0 0 0-2.46-.699c-1.101-.125-1.844.048-2.22.174-.343.116-1.2.386-1.331.41-.173.028-.292-.055-.318-.218-.016-.096.005-.311.22-1.261.286-1.112.69-2.4.59-4.871-.004-.106-.123-1.02-.587-1.693a1.594 1.594 0 0 0-.745-.583c-.72-.273-1.173-.2-1.774-.08-.655.128-1.186.473-1.585 1.074-.178.27-.355.544-.542.807-.38.533-.848.956-1.346 1.343-.413.318-.844.59-1.326.746a2.578 2.578 0 0 0-1.367 1.001l-.016.146c.122.307.401.252.624.3.481.103.957-.02 1.426-.144a13.132 13.742 0 0 0 1.874-.665c.402-.176.805-.26 1.23-.174.22.043.484.08.7.153.268.092.416.273.396.584-.05.735-.212 1.429-.714 1.98-.543.6-1.081 1.205-1.543 1.886a4.526 4.736 0 0 0-.801 2.13 8.791 9.2 0 0 0 .322 4.053 5.856 6.128 0 0 0 1.103 2.088c.648.814 1.442 1.403 2.325 1.857.454.233.94.364 1.426.495.519.14 1.051.23 1.55.444.455.195.913.402 1.22.857.079.118.088.398-.102.747a4.6 4.6 0 0 1-.665.868c-.102.073-.499-.198-.577-.25-.109-.072-.16-.038-.16.102.056.29-.73.3-1.046.31-.445.016-1.924 0-2.17.03-.046.006-.114-.006-.123.059-.01.066.06.075.102.089.107.035.151.122.205.222.177.307.147.559-.116.807-.236.223-.347.282-.626.413-.065.03-.182.044-.164.134.018.084.13.045.201.039.034-.003.694.26 1.326.302.85.057 1.615-.049 1.87-.113.357-.09.713-.18 1.08-.188.119-.002.21-.04.273-.167.086-.171.171-.202.339-.15.059.018.116.044.174.06.185.053.363.145.562.12.117-.015.144-.077.076-.184a2.19 2.292 0 0 1-.197-.375.374.392 0 0 0-.193-.219c-.051-.027-.176-.164-.156-.287.054-.323.492-.86.658-1.021.069-.068.178-.13.234-.216.256-.358.308-.708.2-.996-.012-.232.024-.299.216-.239.278.087.564.078.85.08.324 0 .643-.093.967-.103.145-.003.29 0 .436-.012.467-.038.933-.09 1.397-.157.185.188.344.407.436.7.037.12-.015.367-.235.635-.244.296-.663.61-.697.626-.095.044-.346-.275-.396-.336-.07-.085-.116-.067-.146.057-.017.266-.58.003-.829-.052-.349-.078-1.39-.458-1.588-.483-.037-.004-.087-.028-.107.027-.021.056.03.079.06.1.077.051.093.138.114.236.074.305-.106.586-.362.75-.23.148-.448.204-.691.261-.058.015-.151.001-.156.085-.005.078.09.066.148.075.027.004.424.192.906.357.648.223 1.518.23 1.729.226.53-.056.75.24 1.238.092.225-.07.75.183.91.201.056.016.177-.096-.013-.263-.115-.1-.122-.344-.188-.342-.01-.092-.246-.161-.205-.265.108-.273.509-.58.671-.688.068-.045.165-.078.227-.142.273-.262.386-.558.363-.833.03-.161.172-.983.298-1.288.193-.041.385-.084.577-.13.768-.184 1.536-.316 2.322-.28.845.04 1.69-.026 2.533-.132.86-.107 1.72-.224 2.581-.301.326-.03 1.138-.121 1.464-.148.498-.04.633-.08 1.153-.315.28-.085.093-.188.071-.189" fill="#F9F9F9"></path>
        <text transform="rotate(14.818)" y="118.872" x="178.089" style="-inkscape-font-specification:'Comic Sans MS, Bold';font-variant-ligatures:normal;font-variant-caps:normal;font-variant-numeric:normal;font-variant-east-asian:normal" font-weight="700" font-size="25.4" font-family="Comic Sans MS" fill="#F9F9F9" stroke-width="0.4px" stroke-linejoin="round" stroke-dasharray="0,2.86112" paint-order="markers fill stroke"><tspan y="118.872" x="178.089" fill="#F9F9F9" stroke-width="0.4px">io</tspan></text>
        <path fill="#F9F9F9" paint-order="markers fill stroke" d="M139.227 156.916v1.997h-94.72v-1.997h94.72z"></path>
    </g>
</svg>